<?xml version="1.0" encoding="utf-8"?>
<!-- Generator: Adobe Illustrator 19.2.0, SVG Export Plug-In . SVG Version: 6.00 Build 0)  -->
<svg version="1.1" id="Layer_1" xmlns="http://www.w3.org/2000/svg" xmlns:xlink="http://www.w3.org/1999/xlink" x="0px" y="0px"
	 viewBox="0 0 50 50" style="enable-background:new 0 0 50 50;" xml:space="preserve">
<style type="text/css">
	.st0{fill:#FFFFFF;}
</style>
<title>down_button</title>
<path class="st0" d="M33.2,21.9l-7.8,7.8c-0.2,0.2-0.5,0.2-0.7,0c0,0,0,0,0,0l-7.8-7.8c-0.2-0.2-0.2-0.5,0-0.7c0,0,0,0,0,0l0.8-0.8
	c0.1-0.1,0.2-0.2,0.4-0.2c0.1,0,0.3,0.1,0.4,0.2l6.6,6.6l6.6-6.6c0.2-0.2,0.5-0.2,0.7,0c0,0,0,0,0,0l0.8,0.8
	C33.4,21.3,33.4,21.7,33.2,21.9C33.2,21.9,33.2,21.9,33.2,21.9L33.2,21.9z"/>
</svg>
