<svg id="Layer_1" data-name="Layer 1" xmlns="http://www.w3.org/2000/svg" viewBox="0 0 350 81.68"><defs><style>.cls-1{fill:#8bc440;}.cls-2{fill:#fedc00;}.cls-3{fill:#05a550;}.cls-4{fill:#08aece;}</style></defs><title>HydroFarms_logo</title><path class="cls-1" d="M485.31,1150.39c1.44,0.84,2.87,1.78,4.27,2.78a61.7,61.7,0,0,1,21.13,27.28,32.06,32.06,0,0,1,8.36-8.81c0.52-.36,1-0.7,1.58-1-1.34-20.4-9.66-37.79-20.33-45-6.42,4.48-12.27,14.06-15.8,24.27Z" transform="translate(-461 -1125.67)"/><path class="cls-2" d="M505.07,1201.94a33,33,0,0,1,3.62-18.94,58.87,58.87,0,0,0-20.74-27.56c-1.33-1-2.69-1.84-4.05-2.64-7.32-4.27-14.92-6.19-21.37-5.41a31.29,31.29,0,0,0-1.17,14.58c1.13,8.3,5,17.4,11.51,25.57,8.08,10.16,18.48,16.56,28,18.52a29.88,29.88,0,0,0,5.42.61,21.17,21.17,0,0,1-.79-2.6C505.3,1203.38,505.16,1202.67,505.07,1201.94Z" transform="translate(-461 -1125.67)"/><path class="cls-3" d="M530.4,1176.06a16.37,16.37,0,0,0-1.68-5.47l-0.16,0a15.13,15.13,0,0,0-3.57,1,21,21,0,0,0-4.31,2.36,29.89,29.89,0,0,0-8.63,9.71c-0.21.37-.42,0.74-0.62,1.12a32.88,32.88,0,0,0-2.28,5.58,26.51,26.51,0,0,0-1.13,11.23,18.06,18.06,0,0,0,.82,3.44c0.13,0.38.27,0.74,0.43,1.1s0.27,0.63.43,0.92l0.16,0a14.61,14.61,0,0,0,3.24-.83,20.12,20.12,0,0,0,3.49-1.73c3.92-2.42,8.6-6.72,10.95-11.83S531.08,1181,530.4,1176.06Z" transform="translate(-461 -1125.67)"/><path class="cls-4" d="M510.08,1126.74c-1,0-2,0-3,.12a57.06,57.06,0,0,1,10.95,17.24,80,80,0,0,1,6,24.83,17.82,17.82,0,0,1,4.18-1.1h0l2-.37,1,1.82a19.1,19.1,0,0,1,2,6.4c0.74,5.33-.47,12.44-3.08,18.11-3.35,7.29-10,11.83-12,13.05l-0.85.49A40.62,40.62,0,0,0,510.08,1126.74Z" transform="translate(-461 -1125.67)"/><path class="cls-4" d="M481.45,1148.35h0l0.06-.18a66.33,66.33,0,0,1,7.6-15.59,40.82,40.82,0,0,0-13.6,13.46A44.31,44.31,0,0,1,481.45,1148.35Z" transform="translate(-461 -1125.67)"/><path class="cls-1" d="M591.41,1186.3l-4.29-11.08H572.8l-4.29,11.08h-3.67l13.5-34.6h3.24l13.5,34.6h-3.67ZM580.15,1157h-0.37l-5.66,15h11.7Z" transform="translate(-461 -1125.67)"/><path class="cls-1" d="M616.24,1182.14v3a18.42,18.42,0,0,1-7.72,1.37c-5.91,0-10.83-4.11-10.83-10.08v-6c0-6,4.36-9.71,10.77-9.71,6.22,0,10,3.55,10,7.9v6.47H600.93v1.31c0,4.6,3.92,7,8.28,7A18.4,18.4,0,0,0,616.24,1182.14Zm-1-13.13c0-2.92-2.36-5.23-6.78-5.23-4.67,0-7.53,2.49-7.53,7.22v1.12h14.31V1169Z" transform="translate(-461 -1125.67)"/><path class="cls-1" d="M628.37,1166.52v19.79h-3.24v-25.2h3.24v2.3a11.17,11.17,0,0,1,7.09-2.49,18.23,18.23,0,0,1,6.47,1v3.3a19.4,19.4,0,0,0-7.22-1.24A10.68,10.68,0,0,0,628.37,1166.52Z" transform="translate(-461 -1125.67)"/><path class="cls-1" d="M644.55,1173.42c0-8.84,3.8-12.63,11.45-12.63s11.45,3.8,11.45,12.63c0,9-3.8,13.13-11.45,13.13S644.55,1182.45,644.55,1173.42Zm19.66,0c0-6.72-2.43-9.65-8.21-9.65s-8.21,2.92-8.21,9.65c0,7.47,2.43,10.21,8.21,10.21S664.21,1180.89,664.21,1173.42Z" transform="translate(-461 -1125.67)"/><path class="cls-1" d="M676.65,1155v11.89h15.87v3.3H676.65v16.12h-3.42v-34.6h22.09v3.3H676.65Z" transform="translate(-461 -1125.67)"/><path class="cls-1" d="M713.18,1186.3V1183a12.54,12.54,0,0,1-8.34,3.55c-4.73,0-8.71-3.11-8.71-8s3.73-7.59,9.34-7.59h7.72v-1.49c0-3.42-2-5.66-6.28-5.66a23.62,23.62,0,0,0-8.28,1.68v-3.3a27.9,27.9,0,0,1,8.78-1.37c5,0,9,3,9,8.34v17.11h-3.24Zm0-12.38h-7.72c-4,0-6.1,1.56-6.1,4.67,0,2.86,2.18,5,5.91,5,2.61,0,5.17-1.12,7.9-3v-6.6Z" transform="translate(-461 -1125.67)"/><path class="cls-1" d="M726.12,1166.52v19.79h-3.24v-25.2h3.24v2.3a11.17,11.17,0,0,1,7.09-2.49,18.23,18.23,0,0,1,6.47,1v3.3a19.4,19.4,0,0,0-7.22-1.24A10.68,10.68,0,0,0,726.12,1166.52Z" transform="translate(-461 -1125.67)"/><path class="cls-1" d="M767.44,1160.91c4.92,0,7.65,3,7.65,8.21v17.18h-3.24v-17.18c0-3.48-1.37-5.35-5-5.35a5.29,5.29,0,0,0-5.41,5.35v17.18h-3.24v-17.18c0-3.48-1.12-5.35-4.79-5.35-2,0-3.8,1-5.54,2.74v19.79H744.6v-25.2h3.24v2.3a8.29,8.29,0,0,1,6.29-2.49,6.93,6.93,0,0,1,6.16,3.24C761.72,1162,764.27,1160.91,767.44,1160.91Z" transform="translate(-461 -1125.67)"/><path class="cls-1" d="M780.32,1167.64c0-4.29,3.36-6.91,9-6.91a20.18,20.18,0,0,1,7.78,1.43v3.11a20.2,20.2,0,0,0-8.28-1.49c-3.55,0-5.29,1.56-5.29,3.86s2.3,3.92,5.79,4.48c5.41,0.87,9,2.74,9,7.47,0,4.29-3.86,7.09-9.52,7.09a20.73,20.73,0,0,1-7.9-1.56V1182a20.86,20.86,0,0,0,8.4,1.62c3.55,0,5.66-1.43,5.66-4s-2.18-3.86-5.66-4.42C783.87,1174.29,780.32,1172.18,780.32,1167.64Z" transform="translate(-461 -1125.67)"/><path class="cls-1" d="M806.4,1159.81a4.69,4.69,0,0,1,2.27.59,4.28,4.28,0,0,1,1.71,1.7,4.61,4.61,0,0,1,0,4.6,4.33,4.33,0,0,1-1.7,1.7,4.61,4.61,0,0,1-4.58,0,4.33,4.33,0,0,1-1.7-1.7,4.61,4.61,0,0,1,0-4.6,4.28,4.28,0,0,1,1.71-1.7A4.68,4.68,0,0,1,806.4,1159.81Zm0,0.9a3.75,3.75,0,0,0-1.82.47,3.44,3.44,0,0,0-1.37,1.36,3.71,3.71,0,0,0,0,3.7,3.49,3.49,0,0,0,1.37,1.37,3.67,3.67,0,0,0,3.68,0,3.51,3.51,0,0,0,1.37-1.37,3.7,3.7,0,0,0,0-3.7,3.44,3.44,0,0,0-1.37-1.36A3.77,3.77,0,0,0,806.41,1160.71Zm-2.08,6.16V1162h2.55a1.92,1.92,0,0,1,.77.2,1.22,1.22,0,0,1,.46.47,1.36,1.36,0,0,1,.18.7,1.29,1.29,0,0,1-.35.9,1.57,1.57,0,0,1-1,.47,1.22,1.22,0,0,1,.34.18,2.52,2.52,0,0,1,.33.38s0.16,0.25.36,0.59l0.58,1h-1.22l-0.41-.79a3.3,3.3,0,0,0-.69-1,1.09,1.09,0,0,0-.68-0.21h-0.26v2h-1Zm1-2.77h0.4a4.91,4.91,0,0,0,1.06-.07,0.63,0.63,0,0,0,.33-0.23,0.62,0.62,0,0,0,.12-0.38,0.6,0.6,0,0,0-.12-0.36,0.64,0.64,0,0,0-.33-0.23,4.74,4.74,0,0,0-1.06-.07h-0.4v1.33Z" transform="translate(-461 -1125.67)"/></svg>