<svg id="Layer_1" data-name="Layer 1" xmlns="http://www.w3.org/2000/svg" xmlns:xlink="http://www.w3.org/1999/xlink" viewBox="0 0 800 186.67"><defs><style>.cls-1{fill:#fff;}.cls-2{fill:url(#New_Gradient_Swatch_4);}.cls-3{fill:url(#linear-gradient);}.cls-4{fill:url(#New_Gradient_Swatch_5);}.cls-5{fill:url(#radial-gradient);}.cls-6{fill:url(#radial-gradient-2);}</style><linearGradient id="New_Gradient_Swatch_4" x1="348.75" y1="963.93" x2="431.33" y2="963.93" gradientUnits="userSpaceOnUse"><stop offset="0" stop-color="#d7de29"/><stop offset="1" stop-color="#77b447"/></linearGradient><linearGradient id="linear-gradient" x1="307.03" y1="1064.33" x2="411.51" y2="910.78" gradientTransform="translate(-161.61 130.51) rotate(-7.76)" gradientUnits="userSpaceOnUse"><stop offset="0" stop-color="#336190"/><stop offset="0" stop-color="#bd8b43"/><stop offset="0" stop-color="#f79d22"/><stop offset="1" stop-color="#f8e200"/></linearGradient><linearGradient id="New_Gradient_Swatch_5" x1="439.39" y1="933.07" x2="471.02" y2="1012.14" gradientTransform="translate(-161.61 130.51) rotate(-7.76)" gradientUnits="userSpaceOnUse"><stop offset="0" stop-color="#8cc542"/><stop offset="0.15" stop-color="#86c142"/><stop offset="0.34" stop-color="#76b641"/><stop offset="0.56" stop-color="#5ba43f"/><stop offset="0.79" stop-color="#358b3d"/><stop offset="1" stop-color="#0d703b"/></linearGradient><radialGradient id="radial-gradient" cx="365.69" cy="1057.71" r="147.23" gradientUnits="userSpaceOnUse"><stop offset="0" stop-color="#336190"/><stop offset="0.01" stop-color="#336190"/><stop offset="1" stop-color="#0eafd7"/></radialGradient><radialGradient id="radial-gradient-2" cx="365.69" cy="1057.7" r="147.22" xlink:href="#radial-gradient"/></defs><title>Untitled-2</title><path class="cls-1" d="M593.08,1039.92l-9.81-25.32H550.55l-9.81,25.32h-8.39l30.87-79.08h7.4l30.87,79.08h-8.39Zm-25.75-67h-0.85l-12.94,34.28h26.74Z" transform="translate(-295 -901.33)"/><path class="cls-1" d="M649.83,1030.39v7c-5,2-9.39,3.13-17.64,3.13-13.51,0-24.75-9.39-24.75-23v-13.66c0-13.65,10-22.19,24.61-22.19,14.22,0,22.9,8.11,22.9,18.06v14.79H614.83v3c0,10.52,9,16.07,18.92,16.07A42.06,42.06,0,0,0,649.83,1030.39Zm-2.28-30c0-6.68-5.4-11.95-15.5-11.95-10.67,0-17.21,5.69-17.21,16.5v2.56h32.71v-7.11Z" transform="translate(-295 -901.33)"/><path class="cls-1" d="M677.56,994.68v45.23h-7.4V982.31h7.4v5.26a25.54,25.54,0,0,1,16.21-5.69,41.68,41.68,0,0,1,14.79,2.28v7.54a44.35,44.35,0,0,0-16.5-2.84C687.51,988.85,682.54,990.84,677.56,994.68Z" transform="translate(-295 -901.33)"/><path class="cls-1" d="M714.54,1010.47c0-20.2,8.68-28.88,26.17-28.88s26.17,8.68,26.17,28.88c0,20.62-8.68,30-26.17,30S714.54,1031.1,714.54,1010.47Zm44.95,0c0-15.36-5.55-22-18.78-22s-18.78,6.68-18.78,22c0,17.07,5.55,23.33,18.78,23.33S759.48,1027.54,759.48,1010.47Z" transform="translate(-295 -901.33)"/><path class="cls-1" d="M787.92,968.37v27.17h36.27v7.54H787.92v36.84H780.1V960.83H830.6v7.54H787.92Z" transform="translate(-295 -901.33)"/><path class="cls-1" d="M871.42,1039.92v-7.54a28.66,28.66,0,0,1-19.06,8.11c-10.81,0-19.92-7.11-19.92-18.21s8.54-17.35,21.34-17.35h17.64v-3.42c0-7.82-4.55-12.94-14.36-12.94a54,54,0,0,0-18.92,3.84v-7.54a63.77,63.77,0,0,1,20.06-3.13c11.38,0,20.62,7,20.62,19.06v39.12h-7.4Zm0-28.3H853.78c-9.25,0-13.94,3.56-13.94,10.67,0,6.54,5,11.38,13.51,11.38,6,0,11.81-2.56,18.06-7v-15.08Z" transform="translate(-295 -901.33)"/><path class="cls-1" d="M901,994.68v45.23h-7.4V982.31H901v5.26a25.53,25.53,0,0,1,16.22-5.69A41.67,41.67,0,0,1,932,984.16v7.54a44.35,44.35,0,0,0-16.5-2.84C911,988.85,906,990.84,901,994.68Z" transform="translate(-295 -901.33)"/><path class="cls-1" d="M995.44,981.88c11.24,0,17.5,7,17.5,18.78v39.26h-7.4v-39.26c0-8-3.13-12.23-11.52-12.23a12.08,12.08,0,0,0-12.37,12.23v39.26h-7.4v-39.26c0-8-2.56-12.23-11-12.23-4.55,0-8.68,2.28-12.66,6.26v45.23h-7.4V982.31h7.4v5.26c3.7-3.7,8.11-5.69,14.37-5.69,6.54,0,11.38,3,14.08,7.4C982.36,984.3,988.19,981.88,995.44,981.88Z" transform="translate(-295 -901.33)"/><path class="cls-1" d="M1024.88,997.24c0-9.81,7.68-15.79,20.62-15.79,6.26,0,13.8,1.28,17.78,3.27v7.11a46.18,46.18,0,0,0-18.92-3.41c-8.11,0-12.09,3.56-12.09,8.82,0,5,5.26,9,13.23,10.24,12.37,2,20.48,6.26,20.48,17.07,0,9.81-8.82,16.22-21.76,16.22-6.26,0-14.08-1.57-18.06-3.56v-7.11c6.83,2.56,11.38,3.7,19.2,3.7,8.11,0,12.94-3.27,12.94-9.25s-5-8.82-12.94-10.1C1033,1012.46,1024.88,1007.63,1024.88,997.24Z" transform="translate(-295 -901.33)"/><path class="cls-2" d="M350.57,957.83c3.28,1.92,6.57,4.06,9.77,6.36a141,141,0,0,1,48.3,62.34,73.28,73.28,0,0,1,19.1-20.15c1.19-.83,2.39-1.59,3.6-2.32-3.06-46.62-22.08-86.36-46.46-102.74-14.67,10.24-28,32.13-36.11,55.48C349.36,957.15,350,957.48,350.57,957.83Z" transform="translate(-295 -901.33)"/><path class="cls-3" d="M395.71,1075.67c-1.8-13.35.93-28.66,8.27-43.28a134.56,134.56,0,0,0-47.4-63c-3-2.19-6.15-4.2-9.26-6-16.73-9.77-34.09-14.14-48.85-12.36-3.41,9.65-4.35,21.08-2.67,33.33,2.58,19,11.4,39.77,26.32,58.44,18.46,23.22,42.23,37.85,63.9,42.32a68.3,68.3,0,0,0,12.4,1.4,48.38,48.38,0,0,1-1.8-6C396.25,1078.95,395.94,1077.33,395.71,1075.67Z" transform="translate(-295 -901.33)"/><path class="cls-4" d="M453.61,1016.52a37.42,37.42,0,0,0-3.83-12.5l-0.36.05a34.57,34.57,0,0,0-8.15,2.18,48.08,48.08,0,0,0-9.86,5.39,68.31,68.31,0,0,0-19.72,22.18c-0.48.85-1,1.69-1.41,2.56a75.15,75.15,0,0,0-5.21,12.76,60.58,60.58,0,0,0-2.58,25.67,41.28,41.28,0,0,0,1.88,7.87c0.3,0.86.62,1.7,1,2.51s0.62,1.44,1,2.11l0.36,0a33.4,33.4,0,0,0,7.39-1.89,46,46,0,0,0,8-3.95c9-5.53,19.65-15.36,25-27S455.16,1027.78,453.61,1016.52Z" transform="translate(-295 -901.33)"/><path class="cls-5" d="M407.17,903.79c-2.28,0-4.54.11-6.79,0.27,9.84,10.1,18.37,23.87,25,39.41a182.89,182.89,0,0,1,13.64,56.76,40.73,40.73,0,0,1,9.54-2.52h0.08l4.57-.85,2.2,4.17a43.66,43.66,0,0,1,4.51,14.62c1.68,12.18-1.08,28.43-7,41.4-7.66,16.66-23,27-27.49,29.83-0.64.4-1.29,0.77-1.93,1.13A92.83,92.83,0,0,0,407.17,903.79Z" transform="translate(-295 -901.33)"/><path class="cls-6" d="M341.74,953.17h0l0.14-.42a151.59,151.59,0,0,1,17.38-35.64,93.28,93.28,0,0,0-31.08,30.77A101.28,101.28,0,0,1,341.74,953.17Z" transform="translate(-295 -901.33)"/><path class="cls-1" d="M1084.49,979.35a10.71,10.71,0,0,1,5.19,1.35,9.78,9.78,0,0,1,3.9,3.88,10.53,10.53,0,0,1,0,10.52,9.9,9.9,0,0,1-3.88,3.88,10.53,10.53,0,0,1-10.47,0,9.9,9.9,0,0,1-3.88-3.88,10.54,10.54,0,0,1,0-10.52,9.77,9.77,0,0,1,3.9-3.88A10.7,10.7,0,0,1,1084.49,979.35Zm0,2.06a8.58,8.58,0,0,0-4.16,1.08,7.87,7.87,0,0,0-3.14,3.12,8.49,8.49,0,0,0,0,8.47,8,8,0,0,0,3.12,3.13,8.4,8.4,0,0,0,8.4,0,8,8,0,0,0,3.12-3.13,8.46,8.46,0,0,0,0-8.47,7.86,7.86,0,0,0-3.14-3.12A8.63,8.63,0,0,0,1084.5,981.41Zm-4.76,14.08V984.33H1082q3.18,0,3.57,0a4.39,4.39,0,0,1,1.75.45,2.79,2.79,0,0,1,1,1.07,3.12,3.12,0,0,1,.42,1.6,2.94,2.94,0,0,1-.79,2.06,3.59,3.59,0,0,1-2.21,1.06,2.8,2.8,0,0,1,.78.42,5.75,5.75,0,0,1,.76.86q0.12,0.16.82,1.36l1.32,2.25h-2.8l-0.93-1.81a7.55,7.55,0,0,0-1.57-2.3,2.5,2.5,0,0,0-1.56-.47H1082v4.58h-2.26Zm2.26-6.34h0.92a11.22,11.22,0,0,0,2.43-.15,1.45,1.45,0,0,0,.75-0.53,1.43,1.43,0,0,0,.27-0.86,1.37,1.37,0,0,0-.27-0.83,1.47,1.47,0,0,0-.76-0.52,10.84,10.84,0,0,0-2.43-.16H1082v3Z" transform="translate(-295 -901.33)"/></svg>